<svg width="18" height="20" viewBox="0 0 18 20" fill="none" xmlns="http://www.w3.org/2000/svg">
<path d="M16.8655 16.8713C16.3328 15.9104 15.5179 15.2414 14.7338 14.7683C13.9492 14.2955 13.1836 14.0141 12.7355 13.846C12.3941 13.7192 12.0336 13.5548 11.786 13.3804C11.662 13.2943 11.5681 13.2061 11.5161 13.1343C11.4629 13.0607 11.4522 13.0155 11.4518 12.9797C11.4518 12.6382 11.4518 12.2111 11.4518 11.6396C11.5011 11.5149 11.5527 11.4132 11.611 11.3188C11.7097 11.1566 11.8412 10.9928 11.973 10.7464C12.0825 10.5409 12.1802 10.2822 12.2557 9.94371C12.3221 9.91141 12.3883 9.87402 12.4529 9.82887C12.6508 9.69219 12.8183 9.49301 12.9553 9.23254C13.0938 8.97086 13.2132 8.64277 13.3406 8.1984L13.3396 8.20137L13.3406 8.19809C13.4061 7.96754 13.4375 7.76504 13.4377 7.58082C13.4399 7.28477 13.3473 7.02816 13.1942 6.85496C13.1409 6.79367 13.0831 6.7473 13.0251 6.70723C13.0444 6.47934 13.0792 6.17699 13.1123 5.82832C13.1505 5.42371 13.1851 4.96105 13.1851 4.48195C13.1836 3.72383 13.1029 2.92328 12.7821 2.23246C12.6214 1.88793 12.3959 1.57098 12.088 1.32066C11.8043 1.08949 11.4501 0.923789 11.0392 0.836484C10.7604 0.622656 10.4903 0.435469 10.1537 0.305352C9.79035 0.164531 9.37094 0.0993359 8.81692 0.0996484C8.64211 0.0996484 8.45297 0.105898 8.24602 0.118477C7.66766 0.121094 7.1941 0.191406 6.73684 0.190195C6.41789 0.189883 6.10313 0.159375 5.73844 0.0555859L5.54305 0L5.38738 0.130391C4.90844 0.537109 4.65137 1.14328 4.4941 1.81676C4.33871 2.49324 4.28836 3.25371 4.28789 4.00766C4.28805 4.99156 4.37598 5.96348 4.45074 6.69289C4.39375 6.72996 4.33711 6.77273 4.2834 6.82984C4.11832 7.00273 4.01485 7.27008 4.0177 7.58019C4.01785 7.7641 4.04926 7.96656 4.11473 8.19684L4.11504 8.19805C4.2852 8.79016 4.43906 9.17805 4.64723 9.4723C4.75098 9.61855 4.87153 9.73816 5.0025 9.82879C5.0668 9.87363 5.13258 9.91074 5.19867 9.94301C5.31723 10.4496 5.51688 10.8168 5.68809 11.0827C5.78438 11.2331 5.86946 11.3527 5.92207 11.4421C5.97246 11.5259 5.98742 11.5737 5.99043 11.5956C5.99043 12.1904 5.99043 12.6288 5.99043 12.9796C5.99059 13.0075 5.97965 13.0565 5.92043 13.1352C5.83461 13.2515 5.64738 13.3998 5.42297 13.5254C5.19895 13.6531 4.94012 13.7638 4.7136 13.8436C4.10367 14.0596 2.94645 14.4809 1.92188 15.3013C1.40961 15.7118 0.928713 16.2257 0.57508 16.8674C0.221291 17.5086 -0.000779195 18.2777 2.05461e-06 19.1716C2.05461e-06 19.3268 0.00660355 19.4862 0.0201973 19.6492L0.0494942 20H17.3927L17.422 19.6492C17.4356 19.4866 17.4422 19.3277 17.4422 19.1725C17.4429 18.2789 17.2203 17.5109 16.8655 16.8713ZM16.6739 19.2344H0.768283C0.767971 19.2138 0.765588 19.192 0.765588 19.1716C0.766174 18.4027 0.951291 17.7727 1.24571 17.2367C1.68668 16.4346 2.38797 15.8425 3.10016 15.413C3.81176 14.9836 4.5241 14.722 4.96805 14.5655C5.31781 14.4418 5.72406 14.2626 6.07008 14.0225C6.24309 13.9016 6.40235 13.7655 6.53031 13.5978C6.65668 13.4321 6.75582 13.2219 6.75594 12.9796C6.75594 12.6223 6.75594 12.1758 6.75594 11.5633V11.5436L6.75383 11.5238C6.73305 11.3324 6.65696 11.1814 6.58024 11.0513C6.46254 10.8551 6.33024 10.6844 6.20926 10.4631C6.08875 10.2427 5.97645 9.97652 5.90977 9.6018L5.87102 9.38289L5.66168 9.30812C5.56598 9.27375 5.4975 9.24055 5.43977 9.20047C5.35485 9.14008 5.27621 9.05934 5.17633 8.87359C5.07793 8.6891 4.96985 8.405 4.85125 7.98809V7.98781C4.80028 7.81016 4.78321 7.67559 4.78321 7.58019C4.78621 7.41629 4.82266 7.37773 4.84242 7.35289C4.86363 7.32898 4.90149 7.31074 4.94348 7.30145L5.27633 7.22699L5.24059 6.88785C5.16207 6.14379 5.0534 5.0702 5.0534 4.00762C5.05309 3.28957 5.10406 2.57691 5.24 1.98867C5.35278 1.49191 5.52965 1.09719 5.74977 0.845977C6.1034 0.92668 6.43086 0.956016 6.7368 0.955742C7.27645 0.95457 7.74778 0.882148 8.26676 0.883359H8.27903L8.29203 0.882773C8.48656 0.87082 8.66063 0.865117 8.81688 0.865117C9.31508 0.865391 9.62567 0.922227 9.87778 1.01941C10.1296 1.1166 10.3452 1.26465 10.6368 1.49164L10.7118 1.54992L10.8053 1.56637C11.1472 1.62766 11.4005 1.74941 11.605 1.91477C11.9096 2.16176 12.1147 2.52633 12.2441 2.97852C12.373 3.42891 12.4199 3.95703 12.4195 4.48187C12.4196 4.92391 12.3873 5.36348 12.3501 5.75617C12.3129 6.14941 12.271 6.49242 12.2523 6.76039H12.2524C12.249 6.80797 12.2448 6.84891 12.24 6.895L12.2061 7.22125L12.5232 7.30469C12.5637 7.31543 12.5957 7.33281 12.6161 7.35672C12.635 7.38156 12.6696 7.42461 12.672 7.58074C12.672 7.67582 12.655 7.81012 12.6046 7.98684L12.6043 7.98777C12.4465 8.54461 12.3052 8.86219 12.1852 9.02758C12.1249 9.11102 12.0732 9.15977 12.0154 9.20043C11.9577 9.24051 11.8892 9.27371 11.7936 9.30809L11.5842 9.38285L11.5455 9.60176C11.4998 9.8598 11.445 10.0459 11.3871 10.1918C11.2998 10.4101 11.206 10.5453 11.0852 10.7238C10.9656 10.9 10.8214 11.1192 10.7088 11.4335L10.6861 11.4963V11.5633C10.6861 12.1757 10.6861 12.6222 10.6861 12.9796C10.6857 13.2135 10.777 13.4231 10.8993 13.5879C11.0849 13.837 11.3385 14.0171 11.6126 14.1744C11.8873 14.3302 12.1862 14.4579 12.4671 14.5631C13.0613 14.7841 14.1327 15.1843 15.0388 15.9086C15.4916 16.2702 15.9005 16.7089 16.1956 17.2421C16.4903 17.7762 16.6759 18.4042 16.6764 19.1725C16.6766 19.1925 16.6742 19.2141 16.6739 19.2344Z" fill="white"/>
</svg>
