<svg width="20" height="20" viewBox="0 0 20 20" fill="none" xmlns="http://www.w3.org/2000/svg">
<path d="M19.4157 10.0008C19.2506 9.99207 19.0887 10.0481 18.9643 10.1569C18.84 10.2657 18.7632 10.4187 18.7501 10.5833C18.4449 15.1625 14.6043 18.75 10.0081 18.75C5.17918 18.75 1.25101 14.825 1.25101 10C1.25101 5.17501 5.17918 1.25002 10.0081 1.25002C12.1523 1.25002 14.1631 2.02502 15.7319 3.39668L15.1956 3.93335C15.1082 4.02075 15.0487 4.13207 15.0246 4.25323C15.0006 4.3744 15.0129 4.49998 15.0602 4.61412C15.1075 4.72825 15.1876 4.82582 15.2904 4.89451C15.3931 4.96319 15.514 4.9999 15.6376 5.00001H17.7226C17.8885 5.00001 18.0476 4.93417 18.1649 4.81696C18.2822 4.69975 18.3481 4.54077 18.3481 4.37501V2.29168C18.3481 1.73918 17.6768 1.45502 17.2806 1.85002L16.6167 2.51335C14.7991 0.890405 12.4457 -0.00463105 10.0081 1.80208e-05C4.48945 1.80208e-05 0 4.48585 0 10C0 15.5142 4.48945 20 10.0081 20C15.2615 20 19.65 15.9 19.9986 10.6667C20.0096 10.5012 19.9544 10.338 19.8451 10.2132C19.7358 10.0883 19.5813 10.012 19.4157 10.0008Z" fill="#737791"/>
<path d="M14.5875 6.5221L10.2089 5.03376C10.0787 4.98875 9.93716 4.98875 9.80695 5.03376L5.42842 6.5221C5.30453 6.56384 5.19691 6.64341 5.12073 6.74957C5.04456 6.85574 5.0037 6.98313 5.00391 7.11376V10.4621C5.00391 14.5488 9.56925 16.5354 9.76358 16.6179C9.84092 16.6505 9.92401 16.6673 10.0079 16.6673C10.0919 16.6673 10.175 16.6505 10.2523 16.6179C10.4466 16.5346 15.012 14.5488 15.012 10.4621V7.11376C15.0122 6.98313 14.9713 6.85574 14.8952 6.74957C14.819 6.64341 14.7113 6.56384 14.5875 6.5221ZM12.7485 9.68209L10.455 12.5988C10.3855 12.6872 10.2988 12.7606 10.2002 12.8147C10.1015 12.8688 9.99297 12.9024 9.881 12.9134C9.76904 12.9245 9.65599 12.9128 9.54867 12.8791C9.44134 12.8453 9.34196 12.7902 9.2565 12.7171L7.79699 11.4671C7.71038 11.397 7.6387 11.3102 7.58621 11.212C7.53372 11.1137 7.50147 11.006 7.49138 10.895C7.48128 10.7841 7.49354 10.6723 7.52743 10.5662C7.56133 10.4601 7.61616 10.3618 7.6887 10.2773C7.76124 10.1927 7.85001 10.1235 7.94976 10.0738C8.04952 10.0241 8.15823 9.99488 8.26948 9.98788C8.38073 9.98087 8.49225 9.99621 8.59747 10.033C8.70268 10.0698 8.79944 10.1273 8.88203 10.2021L9.68101 10.8863L11.4366 8.65376C11.5042 8.56757 11.5881 8.49556 11.6836 8.44186C11.779 8.38815 11.8842 8.35381 11.993 8.34081C12.1018 8.3278 12.212 8.33638 12.3175 8.36606C12.423 8.39574 12.5215 8.44593 12.6075 8.51376C12.6938 8.58106 12.7659 8.66472 12.8197 8.75995C12.8735 8.85518 12.908 8.96009 12.9211 9.06865C12.9341 9.17722 12.9256 9.28731 12.896 9.39258C12.8664 9.49785 12.8163 9.59624 12.7485 9.68209Z" fill="#737791"/>
</svg>
