<svg width="20" height="20" viewBox="0 0 20 20" fill="none" xmlns="http://www.w3.org/2000/svg">
<path d="M10 0C6.54813 0 3.75 2.2385 3.75 5C3.75 7.7615 6.54813 10 10 10C13.4519 10 16.25 7.7615 16.25 5C16.25 2.2385 13.4519 0 10 0ZM5.3125 5C5.3125 4.00544 5.80636 3.05161 6.68544 2.34835C7.56451 1.64509 8.7568 1.25 10 1.25C11.2432 1.25 12.4355 1.64509 13.3146 2.34835C14.1936 3.05161 14.6875 4.00544 14.6875 5C14.6875 5.99456 14.1936 6.94839 13.3146 7.65165C12.4355 8.35491 11.2432 8.75 10 8.75C8.7568 8.75 7.56451 8.35491 6.68544 7.65165C5.80636 6.94839 5.3125 5.99456 5.3125 5ZM2.65625 12C1.95188 12 1.27634 12.2238 0.778219 12.6222C0.280093 13.0206 0.000165735 13.561 0 14.1245V14.5C0 16.3775 1.21375 17.7835 3.075 18.69C4.90625 19.5815 7.36625 20 10 20C12.6337 20 15.0938 19.5815 16.925 18.69C18.7863 17.7835 20 16.3775 20 14.5V14.1245C20 13.8455 19.9313 13.5692 19.7978 13.3114C19.6643 13.0536 19.4686 12.8194 19.222 12.6221C18.9753 12.4248 18.6825 12.2683 18.3602 12.1616C18.0379 12.0548 17.6925 11.9999 17.3438 12H2.65625ZM1.5625 14.1245C1.56267 13.8925 1.67797 13.6701 1.88307 13.5061C2.08817 13.3421 2.36628 13.25 2.65625 13.25H17.3438C17.9481 13.25 18.4375 13.6415 18.4375 14.1245V14.5C18.4375 15.872 17.5875 16.904 16.1125 17.6225C14.6062 18.356 12.4575 18.75 10 18.75C7.5425 18.75 5.39375 18.356 3.8875 17.6225C2.4125 16.904 1.5625 15.8725 1.5625 14.5V14.1245Z" fill="#BDBDBD"/>
</svg>
