<svg width="60" height="60" viewBox="0 0 60 60" fill="none" xmlns="http://www.w3.org/2000/svg">
<path d="M30 0C19.6444 0 11.25 6.7155 11.25 15C11.25 23.2845 19.6444 30 30 30C40.3556 30 48.75 23.2845 48.75 15C48.75 6.7155 40.3556 0 30 0ZM15.9375 15C15.9375 12.0163 17.4191 9.15483 20.0563 7.04505C22.6935 4.93526 26.2704 3.75 30 3.75C33.7296 3.75 37.3065 4.93526 39.9437 7.04505C42.5809 9.15483 44.0625 12.0163 44.0625 15C44.0625 17.9837 42.5809 20.8452 39.9437 22.955C37.3065 25.0647 33.7296 26.25 30 26.25C26.2704 26.25 22.6935 25.0647 20.0563 22.955C17.4191 20.8452 15.9375 17.9837 15.9375 15ZM7.96875 36C5.85563 36 3.82903 36.6714 2.33466 37.8667C0.840279 39.0619 0.000497204 40.683 0 42.3735V43.5C0 49.1325 3.64125 53.3505 9.225 56.07C14.7188 58.7445 22.0987 60 30 60C37.9012 60 45.2813 58.7445 50.775 56.07C56.3588 53.3505 60 49.1325 60 43.5V42.3735C60 41.5364 59.7939 40.7075 59.3934 39.9341C58.9929 39.1608 58.4059 38.4581 57.6659 37.8662C56.9259 37.2744 56.0474 36.8049 55.0806 36.4847C54.1138 36.1645 53.0776 35.9998 52.0312 36H7.96875ZM4.6875 42.3735C4.688 41.6776 5.03392 41.0103 5.64922 40.5183C6.26452 40.0264 7.09883 39.75 7.96875 39.75H52.0312C53.8444 39.75 55.3125 40.9245 55.3125 42.3735V43.5C55.3125 47.616 52.7625 50.712 48.3375 52.8675C43.8187 55.068 37.3725 56.25 30 56.25C22.6275 56.25 16.1813 55.068 11.6625 52.8675C7.2375 50.712 4.6875 47.6175 4.6875 43.5V42.3735Z" fill="white"/>
</svg>
