<svg width="22" height="23" viewBox="0 0 22 23" fill="none" xmlns="http://www.w3.org/2000/svg">
<path fill-rule="evenodd" clip-rule="evenodd" d="M3.04615 0.5H2.96154C2.574 0.5 2.24062 0.5 1.94615 0.569379C1.49031 0.678296 1.07352 0.911278 0.741959 1.24251C0.410403 1.57374 0.177028 1.99029 0.0676922 2.446C-6.30434e-08 2.74044 0 3.07211 0 3.46131V7.69175C0 8.07926 1.26087e-08 8.41262 0.0693846 8.70706C0.17831 9.16287 0.411309 9.57963 0.742567 9.91116C1.07382 10.2427 1.49041 10.4761 1.94615 10.5854C2.24062 10.6531 2.57231 10.6531 2.96154 10.6531H7.19231C7.57985 10.6531 7.91323 10.6531 8.20769 10.5837C8.66354 10.4748 9.08033 10.2418 9.41189 9.91055C9.74344 9.57932 9.97682 9.16277 10.0862 8.70706C10.1538 8.41262 10.1538 8.08096 10.1538 7.69175V3.46131C10.1538 3.0738 10.1538 2.74044 10.0845 2.446C9.97554 1.99019 9.74254 1.57343 9.41128 1.2419C9.08002 0.910372 8.66344 0.677015 8.20769 0.567687C7.91323 0.5 7.58154 0.5 7.19231 0.5H7.10769H3.04615ZM2.34046 2.21587C2.41323 2.19895 2.52662 2.19218 3.04615 2.19218H7.10769C7.62892 2.19218 7.74062 2.19725 7.81339 2.21587C7.9654 2.25222 8.10438 2.32996 8.21491 2.44048C8.32543 2.551 8.40318 2.68997 8.43954 2.84197C8.45646 2.91305 8.46154 3.02473 8.46154 3.54592V7.60714C8.46154 8.12834 8.45646 8.24002 8.43785 8.31278C8.40149 8.46479 8.32374 8.60376 8.21322 8.71428C8.10269 8.82479 7.96371 8.90254 7.81169 8.93889C7.74231 8.95412 7.63062 8.96089 7.10769 8.96089H3.04615C2.52492 8.96089 2.41323 8.95581 2.34046 8.9372C2.18844 8.90085 2.04946 8.8231 1.93894 8.71258C1.82841 8.60207 1.75066 8.4631 1.71431 8.31109C1.69908 8.24171 1.69231 8.13003 1.69231 7.60714V3.54592C1.69231 3.02473 1.69738 2.91304 1.716 2.84028C1.75235 2.68827 1.8301 2.5493 1.94063 2.43879C2.05115 2.32827 2.19013 2.25053 2.34215 2.21418M14.8923 0.5H14.8077C14.4202 0.5 14.0868 0.5 13.7923 0.569379C13.3365 0.678296 12.9197 0.911278 12.5881 1.24251C12.2566 1.57374 12.0232 1.99029 11.9138 2.446C11.8462 2.74044 11.8462 3.07211 11.8462 3.46131V7.69175C11.8462 8.07926 11.8462 8.41262 11.9155 8.70706C12.0245 9.16287 12.2575 9.57963 12.5887 9.91116C12.92 10.2427 13.3366 10.4761 13.7923 10.5854C14.0868 10.6531 14.4185 10.6531 14.8077 10.6531H19.0385C19.426 10.6531 19.7594 10.6531 20.0538 10.5837C20.5097 10.4748 20.9265 10.2418 21.258 9.91055C21.5896 9.57932 21.823 9.16277 21.9323 8.70706C22 8.41262 22 8.08096 22 7.69175V3.46131C22 3.0738 22 2.74044 21.9306 2.446C21.8217 1.99019 21.5887 1.57343 21.2574 1.2419C20.9262 0.910372 20.5096 0.677015 20.0538 0.567687C19.7594 0.5 19.4277 0.5 19.0385 0.5H18.9538H14.8923ZM14.1866 2.21587C14.2594 2.19895 14.3728 2.19218 14.8923 2.19218H18.9538C19.4751 2.19218 19.5868 2.19725 19.6595 2.21587C19.8116 2.25222 19.9505 2.32996 20.0611 2.44048C20.1716 2.551 20.2493 2.68997 20.2857 2.84197C20.3026 2.91305 20.3077 3.02473 20.3077 3.54592V7.60714C20.3077 8.12834 20.3009 8.24002 20.284 8.31278C20.2476 8.46479 20.1699 8.60376 20.0594 8.71428C19.9488 8.82479 19.8099 8.90254 19.6578 8.93889C19.5868 8.95581 19.4751 8.96089 18.9538 8.96089H14.8923C14.3711 8.96089 14.2594 8.95581 14.1866 8.9372C14.0346 8.90085 13.8956 8.8231 13.7851 8.71258C13.6746 8.60207 13.5968 8.4631 13.5605 8.31109C13.5452 8.24171 13.5385 8.13003 13.5385 7.60714V3.54592C13.5385 3.02473 13.5435 2.91304 13.5622 2.84028C13.5985 2.68827 13.6763 2.5493 13.7868 2.43879C13.8973 2.32827 14.0363 2.25053 14.1883 2.21418M2.96154 12.3452H7.19231C7.57985 12.3452 7.91323 12.3452 8.20769 12.4146C8.66354 12.5235 9.08033 12.7565 9.41189 13.0878C9.74344 13.419 9.97682 13.8355 10.0862 14.2912C10.1538 14.5857 10.1538 14.9174 10.1538 15.3066V19.537C10.1538 19.9245 10.1538 20.2579 10.0845 20.5523C9.97554 21.0081 9.74254 21.4249 9.41128 21.7564C9.08002 22.0879 8.66344 22.3213 8.20769 22.4306C7.91323 22.4983 7.58154 22.4983 7.19231 22.4983H2.96154C2.574 22.4983 2.24062 22.4983 1.94615 22.4289C1.49031 22.32 1.07352 22.087 0.741959 21.7558C0.410403 21.4246 0.177028 21.008 0.0676922 20.5523C-6.30434e-08 20.2579 0 19.9262 0 19.537V15.3066C0 14.919 1.26087e-08 14.5857 0.0693846 14.2912C0.17831 13.8354 0.411309 13.4187 0.742567 13.0871C1.07382 12.7556 1.49041 12.5223 1.94615 12.4129C2.24062 12.3452 2.57231 12.3452 2.96154 12.3452ZM3.04615 14.0374C2.52492 14.0374 2.41323 14.0425 2.34046 14.0611C2.18844 14.0975 2.04946 14.1752 1.93894 14.2857C1.82841 14.3962 1.75066 14.5352 1.71431 14.6872C1.69908 14.7566 1.69231 14.8683 1.69231 15.3912V19.4524C1.69231 19.9736 1.69738 20.0853 1.716 20.158C1.75235 20.31 1.8301 20.449 1.94063 20.5595C2.05115 20.67 2.19013 20.7478 2.34215 20.7841C2.41323 20.8011 2.52492 20.8061 3.04615 20.8061H7.10769C7.62892 20.8061 7.74062 20.7994 7.81339 20.7824C7.9654 20.7461 8.10438 20.6683 8.21491 20.5578C8.32543 20.4473 8.40318 20.3083 8.43954 20.1563C8.45646 20.0853 8.46154 19.9736 8.46154 19.4524V15.3912C8.46154 14.87 8.45646 14.7583 8.43785 14.6855C8.40149 14.5335 8.32374 14.3945 8.21322 14.284C8.10269 14.1735 7.96371 14.0958 7.81169 14.0594C7.74231 14.0442 7.63062 14.0374 7.10769 14.0374H3.04615ZM14.8923 12.3452H14.8077C14.4202 12.3452 14.0868 12.3452 13.7923 12.4146C13.3365 12.5235 12.9197 12.7565 12.5881 13.0878C12.2566 13.419 12.0232 13.8355 11.9138 14.2912C11.8462 14.5857 11.8462 14.9174 11.8462 15.3066V19.537C11.8462 19.9245 11.8462 20.2579 11.9155 20.5523C12.0245 21.0081 12.2575 21.4249 12.5887 21.7564C12.92 22.0879 13.3366 22.3213 13.7923 22.4306C14.0868 22.5 14.4202 22.5 14.8077 22.5H19.0385C19.426 22.5 19.7594 22.5 20.0538 22.4306C20.5094 22.3214 20.9258 22.0883 21.2571 21.7571C21.5883 21.4259 21.8214 21.0095 21.9306 20.554C22 20.2596 22 19.9262 22 19.5387V15.3066C22 14.919 22 14.5857 21.9306 14.2912C21.8217 13.8354 21.5887 13.4187 21.2574 13.0871C20.9262 12.7556 20.5096 12.5223 20.0538 12.4129C19.7594 12.3452 19.4277 12.3452 19.0385 12.3452H18.9538H14.8923ZM14.1866 14.0611C14.2594 14.0442 14.3728 14.0374 14.8923 14.0374H18.9538C19.4751 14.0374 19.5868 14.0425 19.6595 14.0611C19.8116 14.0975 19.9505 14.1752 20.0611 14.2857C20.1716 14.3962 20.2493 14.5352 20.2857 14.6872C20.3026 14.7583 20.3077 14.87 20.3077 15.3912V19.4524C20.3077 19.9736 20.3009 20.0853 20.284 20.158C20.2476 20.31 20.1699 20.449 20.0594 20.5595C19.9488 20.67 19.8099 20.7478 19.6578 20.7841C19.5868 20.8011 19.4751 20.8061 18.9538 20.8061H14.8923C14.3711 20.8061 14.2594 20.7994 14.1866 20.7824C14.0346 20.7461 13.8956 20.6683 13.7851 20.5578C13.6746 20.4473 13.5968 20.3083 13.5605 20.1563C13.5452 20.087 13.5385 19.9753 13.5385 19.4524V15.3912C13.5385 14.87 13.5435 14.7583 13.5622 14.6855C13.5985 14.5335 13.6763 14.3945 13.7868 14.284C13.8973 14.1735 14.0363 14.0958 14.1883 14.0594" fill="white"/>
</svg>
