<svg width="19" height="15" viewBox="0 0 19 15" fill="none" xmlns="http://www.w3.org/2000/svg">
<path d="M17.575 3C18.362 3 19 2.32843 19 1.5C19 0.671573 18.362 0 17.575 0C16.788 0 16.15 0.671573 16.15 1.5C16.15 2.32843 16.788 3 17.575 3Z" fill="#152B51"/>
<path d="M13.775 3H1.425C1.04707 3 0.684612 2.84196 0.417373 2.56066C0.150134 2.27936 0 1.89782 0 1.5C0 1.10218 0.150134 0.720644 0.417373 0.43934C0.684612 0.158035 1.04707 0 1.425 0H13.775C14.1529 0 14.5154 0.158035 14.7826 0.43934C15.0499 0.720644 15.2 1.10218 15.2 1.5C15.2 1.89782 15.0499 2.27936 14.7826 2.56066C14.5154 2.84196 14.1529 3 13.775 3ZM13.775 9H1.425C1.04707 9 0.684612 8.84196 0.417373 8.56066C0.150134 8.27936 0 7.89782 0 7.5C0 7.10217 0.150134 6.72064 0.417373 6.43934C0.684612 6.15803 1.04707 6 1.425 6H13.775C14.1529 6 14.5154 6.15803 14.7826 6.43934C15.0499 6.72064 15.2 7.10217 15.2 7.5C15.2 7.89782 15.0499 8.27936 14.7826 8.56066C14.5154 8.84196 14.1529 9 13.775 9ZM8.075 15H1.425C1.04707 15 0.684612 14.842 0.417373 14.5607C0.150134 14.2794 0 13.8978 0 13.5C0 13.1022 0.150134 12.7206 0.417373 12.4393C0.684612 12.158 1.04707 12 1.425 12H8.075C8.45293 12 8.81539 12.158 9.08263 12.4393C9.34987 12.7206 9.5 13.1022 9.5 13.5C9.5 13.8978 9.34987 14.2794 9.08263 14.5607C8.81539 14.842 8.45293 15 8.075 15Z" fill="#152B51"/>
</svg>
