<svg width="12" height="12" viewBox="0 0 12 12" fill="none" xmlns="http://www.w3.org/2000/svg">
<path d="M0 0.428571C0 0.314907 0.0526785 0.205898 0.146447 0.125526C0.240215 0.0451529 0.367392 0 0.5 0H11.5C11.6326 0 11.7598 0.0451529 11.8536 0.125526C11.9473 0.205898 12 0.314907 12 0.428571C12 0.542236 11.9473 0.651244 11.8536 0.731617C11.7598 0.81199 11.6326 0.857143 11.5 0.857143H10.5V1.71429C10.5002 2.44203 10.2602 3.15497 9.80775 3.77076C9.35529 4.38655 8.70881 4.88006 7.943 5.19429C7.653 5.31343 7.5 5.51743 7.5 5.7V6.3C7.5 6.48257 7.654 6.68657 7.943 6.80571C8.70881 7.11994 9.35529 7.61345 9.80775 8.22924C10.2602 8.84503 10.5002 9.55797 10.5 10.2857V11.1429H11.5C11.6326 11.1429 11.7598 11.188 11.8536 11.2684C11.9473 11.3488 12 11.4578 12 11.5714C12 11.6851 11.9473 11.7941 11.8536 11.8745C11.7598 11.9548 11.6326 12 11.5 12H0.5C0.367392 12 0.240215 11.9548 0.146447 11.8745C0.0526785 11.7941 0 11.6851 0 11.5714C0 11.4578 0.0526785 11.3488 0.146447 11.2684C0.240215 11.188 0.367392 11.1429 0.5 11.1429H1.5V10.2857C1.49979 9.55797 1.73979 8.84503 2.19225 8.22924C2.64471 7.61345 3.29119 7.11994 4.057 6.80571C4.347 6.68657 4.5 6.48257 4.5 6.3V5.7C4.5 5.51743 4.346 5.31343 4.057 5.19429C3.29119 4.88006 2.64471 4.38655 2.19225 3.77076C1.73979 3.15497 1.49979 2.44203 1.5 1.71429V0.857143H0.5C0.367392 0.857143 0.240215 0.81199 0.146447 0.731617C0.0526785 0.651244 0 0.542236 0 0.428571ZM2.5 0.857143V1.71429C2.49982 2.28036 2.68649 2.83493 3.03845 3.31391C3.39041 3.7929 3.89329 4.17676 4.489 4.42114C5.022 4.64057 5.5 5.09914 5.5 5.69914V6.30086C5.5 6.30086 5.68 6.42857 6 6.42857C6.32 6.42857 6.5 6.3 6.5 6.3V5.7C6.5 5.09914 6.978 4.64057 7.511 4.42114C8.1067 4.17676 8.60959 3.7929 8.96155 3.31391C9.31351 2.83493 9.50018 2.28036 9.5 1.71429V0.857143H2.5Z" fill="white"/>
</svg>
