<svg width="12" height="12" viewBox="0 0 12 12" fill="none" xmlns="http://www.w3.org/2000/svg">
<path d="M11.0002 1.12527H9.3752V0.375258C9.37526 0.2758 9.33582 0.180389 9.26554 0.110014C9.19525 0.0396396 9.0999 6.63945e-05 9.00044 8.90434e-08C8.90098 -6.62165e-05 8.80557 0.0393798 8.73519 0.109661C8.66482 0.179941 8.62525 0.2753 8.62518 0.374758V1.12527H6.37513V0.375258C6.37517 0.326011 6.3655 0.27724 6.34668 0.23173C6.32787 0.186219 6.30027 0.14486 6.26547 0.110014C6.23067 0.0751682 6.18935 0.0475178 6.14387 0.0286415C6.09838 0.00976529 6.04962 3.29146e-05 6.00038 8.34554e-08C5.90092 -6.6222e-05 5.80551 0.0393798 5.73513 0.109661C5.66476 0.179941 5.62518 0.2753 5.62512 0.374758V1.12527H3.37507V0.375258C3.3751 0.326011 3.36544 0.27724 3.34662 0.23173C3.3278 0.186219 3.30021 0.14486 3.26541 0.110014C3.23061 0.0751682 3.18929 0.0475178 3.1438 0.0286415C3.09832 0.00976529 3.04956 3.29146e-05 3.00031 8.34554e-08C2.90085 -6.6222e-05 2.80544 0.0393798 2.73507 0.109661C2.66469 0.179941 2.62512 0.2753 2.62505 0.374758V1.12527H1.00002C0.734885 1.12527 0.480602 1.23056 0.293076 1.418C0.10555 1.60543 0.000132568 1.85966 0 2.12479V11C0 11.2652 0.105359 11.5196 0.292899 11.7071C0.48044 11.8946 0.734799 12 1.00002 12H11.0002C11.2655 12 11.5198 11.8946 11.7074 11.7071C11.8949 11.5196 12.0003 11.2652 12.0003 11V2.12479C12.0001 1.85966 11.8947 1.60543 11.7072 1.418C11.5196 1.23056 11.2654 1.12527 11.0002 1.12527ZM11.2502 11.0005C11.2502 11.0667 11.224 11.1302 11.1772 11.1771C11.1304 11.224 11.0669 11.2504 11.0007 11.2505H1.00002C0.933715 11.2505 0.870126 11.2241 0.82324 11.1773C0.776355 11.1304 0.750016 11.0668 0.750016 11.0005V2.12529C0.750148 2.05908 0.776546 1.99561 0.823417 1.94884C0.870288 1.90206 0.933802 1.87579 1.00002 1.87579H2.62505V2.6258C2.62499 2.72526 2.66443 2.82067 2.73472 2.89105C2.805 2.96142 2.90035 3.001 2.99981 3.00106C3.09927 3.00113 3.19468 2.96168 3.26506 2.8914C3.33543 2.82112 3.375 2.72576 3.37507 2.6263V1.87579H5.62512V2.6258C5.62505 2.72526 5.6645 2.82067 5.73478 2.89105C5.80506 2.96142 5.90042 3.001 5.99988 3.00106C6.09933 3.00113 6.19474 2.96168 6.26512 2.8914C6.33549 2.82112 6.37507 2.72576 6.37513 2.6263V1.87579H8.62518V2.6258C8.62511 2.72526 8.66456 2.82067 8.73484 2.89105C8.80512 2.96142 8.90048 3.001 8.99994 3.00106C9.0994 3.00113 9.19481 2.96168 9.26518 2.8914C9.33556 2.82112 9.37513 2.72576 9.3752 2.6263V1.87579H11.0002C11.0664 1.87592 11.1297 1.90225 11.1765 1.94901C11.2233 1.99578 11.2496 2.05916 11.2497 2.12529L11.2502 11.0005Z" fill="white"/>
<path d="M2.62506 4.50035H4.12509V5.62537H2.62506V4.50035ZM2.62506 6.37539H4.12509V7.50041H2.62506V6.37539ZM2.62506 8.25043H4.12509V9.37545H2.62506V8.25043ZM5.25012 8.25043H6.75015V9.37545H5.25012V8.25043ZM5.25012 6.37539H6.75015V7.50041H5.25012V6.37539ZM5.25012 4.50035H6.75015V5.62537H5.25012V4.50035ZM7.87517 8.25043H9.3752V9.37545H7.87517V8.25043ZM7.87517 6.37539H9.3752V7.50041H7.87517V6.37539ZM7.87517 4.50035H9.3752V5.62537H7.87517V4.50035Z" fill="white"/>
</svg>
