<svg width="12" height="12" viewBox="0 0 12 12" fill="none" xmlns="http://www.w3.org/2000/svg">
<path d="M7.5582 0C6.85646 0.000629228 6.16482 0.167212 5.53975 0.486148C4.91467 0.805084 4.37389 1.26733 3.96155 1.83514C3.54921 2.40296 3.277 3.06024 3.16716 3.75333C3.05731 4.44642 3.11294 5.15566 3.3295 5.82315L0.130046 9.02205C0.0887715 9.06337 0.0560427 9.11241 0.0337291 9.16639C0.0114155 9.22036 -4.57875e-05 9.2782 1.3747e-07 9.3366V11.5596C1.3747e-07 11.6775 0.0468418 11.7906 0.13022 11.874C0.213599 11.9574 0.326685 12.0042 0.4446 12.0042H2.6676C2.78552 12.0042 2.8986 11.9574 2.98198 11.874C3.06536 11.7906 3.1122 11.6775 3.1122 11.5596V10.6704H4.0014C4.11932 10.6704 4.2324 10.6236 4.31578 10.5402C4.39916 10.4568 4.446 10.3437 4.446 10.2258V9.3366H5.3352C5.3936 9.33665 5.45144 9.32519 5.50542 9.30287C5.55939 9.28056 5.60844 9.24783 5.64976 9.20656L6.18105 8.6747C6.79211 8.8731 7.43891 8.9367 8.07691 8.86114C8.71491 8.78558 9.32896 8.57264 9.87677 8.237C10.4246 7.90135 10.8931 7.45097 11.2502 6.91686C11.6072 6.38275 11.8443 5.77761 11.945 5.14309C12.0457 4.50858 12.0078 3.85977 11.8337 3.24134C11.6596 2.62292 11.3536 2.04956 10.9366 1.56076C10.5197 1.07196 10.0018 0.679321 9.41859 0.409882C8.83536 0.140444 8.20066 0.000607273 7.5582 0ZM7.5582 8.0028C7.10814 8.00356 6.66205 7.91849 6.24385 7.75216C6.16205 7.71665 6.07145 7.70657 5.98384 7.72322C5.89623 7.73987 5.81565 7.78248 5.75257 7.84552L5.15125 8.4474H4.0014C3.88349 8.4474 3.7704 8.49424 3.68702 8.57762C3.60364 8.661 3.5568 8.77409 3.5568 8.892V9.7812H2.6676C2.54969 9.7812 2.4366 9.82804 2.35322 9.91142C2.26984 9.9948 2.223 10.1079 2.223 10.2258V11.115H0.8892V9.52055L4.15868 6.25163C4.22172 6.18855 4.26433 6.10797 4.28098 6.02036C4.29763 5.93275 4.28755 5.84216 4.25204 5.76035C3.97089 5.05335 3.92385 4.27482 4.11784 3.53912C4.31184 2.80341 4.73664 2.1493 5.32986 1.67287C5.92307 1.19643 6.65344 0.922772 7.41367 0.892093C8.1739 0.861414 8.92394 1.07533 9.55362 1.50242C10.1833 1.9295 10.6594 2.54726 10.9121 3.26494C11.1647 3.98262 11.1806 4.7624 10.9573 5.48976C10.734 6.21711 10.2834 6.8537 9.67158 7.30603C9.05978 7.75835 8.31905 8.00256 7.5582 8.0028ZM9.3366 3.3345C9.3366 3.4664 9.29749 3.59534 9.22421 3.70501C9.15093 3.81468 9.04677 3.90016 8.92491 3.95064C8.80305 4.00111 8.66896 4.01432 8.5396 3.98859C8.41023 3.96285 8.2914 3.89934 8.19813 3.80607C8.10486 3.7128 8.04135 3.59397 8.01562 3.46461C7.98988 3.33524 8.00309 3.20115 8.05357 3.07929C8.10404 2.95743 8.18952 2.85327 8.29919 2.77999C8.40886 2.70671 8.5378 2.6676 8.6697 2.6676C8.84657 2.6676 9.0162 2.73786 9.14127 2.86293C9.26634 2.988 9.3366 3.15763 9.3366 3.3345Z" fill="white"/>
</svg>
