<svg width="10" height="10" viewBox="0 0 10 10" fill="none" xmlns="http://www.w3.org/2000/svg">
<path d="M0.894119 8.74987C0.404297 8.74987 0 8.35391 0 7.85703V0.892844C0 0.403721 0.396522 0 0.894119 0H7.45617C7.94599 0 8.35029 0.395957 8.35029 0.892844V4.18472L8.31919 4.17696C8.18702 4.13814 8.06262 4.12261 7.92267 4.12261H7.91489L7.90712 4.09932H7.88379V0.892844C7.88379 0.667692 7.68165 0.465832 7.45617 0.465832H0.894119C0.668645 0.465832 0.466497 0.667692 0.466497 0.892844V7.85703C0.466497 8.08218 0.668645 8.28404 0.894119 8.28404H4.33842L4.34619 8.2918C4.43172 8.40826 4.38507 8.49366 4.35397 8.55577C4.32287 8.61012 4.30732 8.64894 4.36174 8.70329L4.40839 8.74987H0.894119Z" fill="#152B51"/>
<path d="M1.3994 1.70804C1.31387 1.70804 1.2439 1.59935 1.2439 1.46736C1.2439 1.33538 1.31387 1.22668 1.3994 1.22668H4.04288C4.1284 1.22668 4.19838 1.33538 4.19838 1.46736C4.19838 1.59935 4.1284 1.70804 4.04288 1.70804H1.3994Z" fill="#152B51"/>
<path d="M4.04288 1.25H1.3994C1.32942 1.25 1.26722 1.34317 1.26722 1.46739C1.26722 1.59161 1.32942 1.68478 1.3994 1.68478H4.04288C4.11285 1.68478 4.17505 1.59161 4.17505 1.46739C4.17505 1.34317 4.12063 1.25 4.04288 1.25ZM1.3683 2.95029C1.29832 2.95029 1.2439 2.84936 1.2439 2.70961C1.2439 2.56986 1.29832 2.46893 1.3683 2.46893H3.26538C3.33536 2.46893 3.38978 2.56986 3.38978 2.70961C3.38978 2.84936 3.33536 2.95029 3.26538 2.95029H1.3683Z" fill="#152B51"/>
<path d="M3.26553 2.49223H1.36845C1.31402 2.49223 1.27515 2.5854 1.27515 2.70962C1.27515 2.83384 1.31402 2.92701 1.36845 2.92701H3.26553C3.31996 2.92701 3.35883 2.83384 3.35883 2.70962C3.35883 2.5854 3.31218 2.49223 3.26553 2.49223ZM7.1841 9.99988C6.91198 9.99988 6.61653 9.98436 6.23556 9.9533C5.68354 9.90672 5.17817 9.65051 4.68835 9.17692L2.48026 7.01856C1.96712 6.52168 1.94379 5.86951 2.40251 5.37262C2.59689 5.17076 2.90011 5.04654 3.22666 5.04654C3.5532 5.04654 3.84865 5.17076 4.03525 5.38815C4.04303 5.39592 4.05858 5.41144 4.08968 5.42697C4.09745 5.43473 4.113 5.4425 4.12078 5.45026V4.40991V3.89749C4.12078 3.50153 4.12078 3.09781 4.12855 2.70186C4.13633 2.1118 4.59505 1.6615 5.20149 1.6615H5.20927C5.79239 1.6615 6.23556 2.08851 6.26666 2.6708C6.27443 2.80279 6.27443 2.94254 6.26666 3.08229V3.26085H6.38328C6.78758 3.26085 7.09858 3.4006 7.32405 3.69563C7.33183 3.71116 7.37848 3.72669 7.44068 3.72669C7.464 3.72669 7.48733 3.72669 7.50288 3.71892C7.57285 3.71116 7.64282 3.70339 7.70502 3.70339C8.01602 3.70339 8.28815 3.82762 8.52139 4.08382C8.56027 4.12264 8.64579 4.1537 8.72354 4.1537H8.75464C8.80907 4.14593 8.87127 4.13817 8.92569 4.13817C9.50881 4.13817 9.97531 4.54966 9.98308 5.08536C10.0064 6.07137 10.022 7.04185 9.91311 8.00457C9.78093 9.16915 9.15894 9.79026 7.94605 9.94554C7.72057 9.98436 7.464 9.99988 7.1841 9.99988ZM3.18778 5.48908C3.02451 5.48908 2.86901 5.55119 2.75239 5.65989C2.61244 5.79964 2.53469 5.96268 2.53469 6.14125C2.53469 6.32758 2.62021 6.51391 2.77571 6.66919L3.07116 6.96422C3.71648 7.60085 4.38512 8.25302 5.05377 8.89742C5.38032 9.20797 5.75351 9.40983 6.16559 9.48747C6.48436 9.54958 6.80313 9.58064 7.11413 9.58064C7.39403 9.58064 7.67392 9.55735 7.94605 9.503C8.93347 9.32443 9.38441 8.85083 9.47771 7.9347C9.56324 7.05738 9.55546 6.15677 9.53991 5.28722V5.14747C9.53214 4.82915 9.30666 4.61177 8.98789 4.61177C8.90237 4.61177 8.82462 4.62729 8.73909 4.65835V5.86951C8.73909 5.97821 8.73909 6.18783 8.52139 6.18783H8.51362C8.44364 6.18783 8.38922 6.1723 8.35812 6.13348C8.29592 6.07137 8.28815 5.95491 8.28815 5.86175V5.81516C8.28815 5.45803 8.29592 5.09313 8.28815 4.72822C8.28037 4.40991 8.0549 4.18475 7.7439 4.18475C7.66615 4.18475 7.5884 4.20028 7.51843 4.22357V5.48132C7.51843 5.59001 7.4951 5.67541 7.44068 5.72976C7.4018 5.76858 7.34738 5.79187 7.2774 5.79187H7.26963C7.0597 5.78411 7.0597 5.56672 7.0597 5.48908V4.97667V4.3245C7.0597 4.17699 6.9975 4.02171 6.88088 3.90525C6.77203 3.79656 6.62431 3.73445 6.47658 3.73445C6.41438 3.73445 6.34441 3.74221 6.28221 3.76551V4.3245C6.28221 4.58847 6.28221 4.86797 6.26666 5.13971C6.25888 5.20958 6.19669 5.26393 6.13449 5.31828C6.11116 5.34157 6.08006 5.36486 6.05674 5.38815L6.03341 5.41144L6.01786 5.37262C6.00231 5.34933 5.97899 5.32604 5.95566 5.31051C5.90901 5.25617 5.85459 5.20182 5.82349 5.13971C5.80016 5.09313 5.80794 5.03878 5.80794 4.99219V4.93008V4.25463C5.80794 3.75774 5.80794 3.24533 5.80016 2.74068C5.80016 2.36801 5.55914 2.11957 5.20927 2.1118C4.8283 2.1118 4.57172 2.38354 4.57172 2.7795V6.43627L4.47065 6.49838L4.46287 6.48286C4.3929 6.40522 4.31515 6.32758 4.24517 6.24994C4.0819 6.07914 3.91085 5.8928 3.7398 5.722C3.5843 5.57448 3.38993 5.48908 3.18778 5.48908Z" fill="#152B51"/>
</svg>
