<svg width="20" height="20" viewBox="0 0 20 20" fill="none" xmlns="http://www.w3.org/2000/svg">
<path d="M1.78826 17.5C0.808606 17.5 0 16.7081 0 15.7143V1.78571C0 0.807453 0.793056 0 1.78826 0H14.9126C15.8922 0 16.7008 0.791925 16.7008 1.78571V8.36956L16.6386 8.35404C16.3743 8.2764 16.1255 8.24534 15.8456 8.24534H15.83L15.8145 8.19876H15.7678V1.78571C15.7678 1.3354 15.3635 0.931677 14.9126 0.931677H1.78826C1.33731 0.931677 0.933007 1.3354 0.933007 1.78571V15.7143C0.933007 16.1646 1.33731 16.5683 1.78826 16.5683H8.67697L8.69252 16.5838C8.86357 16.8168 8.77027 16.9876 8.70807 17.1118C8.64587 17.2205 8.61477 17.2981 8.72362 17.4068L8.81692 17.5H1.78826Z" fill="#ffffff"/>
<path d="M2.79928 3.4161C2.62823 3.4161 2.48828 3.19871 2.48828 2.93474C2.48828 2.67076 2.62823 2.45337 2.79928 2.45337H8.08632C8.25737 2.45337 8.39733 2.67076 8.39733 2.93474C8.39733 3.19871 8.25737 3.4161 8.08632 3.4161H2.79928Z" fill="#ffffff"/>
<path d="M8.08632 2.5H2.79928C2.65933 2.5 2.53493 2.68634 2.53493 2.93478C2.53493 3.18323 2.65933 3.36957 2.79928 3.36957H8.08632C8.22627 3.36957 8.35068 3.18323 8.35068 2.93478C8.35068 2.68634 8.24182 2.5 8.08632 2.5ZM2.73708 5.90062C2.59713 5.90062 2.48828 5.69876 2.48828 5.41925C2.48828 5.13975 2.59713 4.93789 2.73708 4.93789H6.53131C6.67126 4.93789 6.78011 5.13975 6.78011 5.41925C6.78011 5.69876 6.67126 5.90062 6.53131 5.90062H2.73708Z" fill="#ffffff"/>
<path d="M6.53161 4.98449H2.73738C2.62853 4.98449 2.55078 5.17082 2.55078 5.41927C2.55078 5.66772 2.62853 5.85405 2.73738 5.85405H6.53161C6.64046 5.85405 6.71821 5.66772 6.71821 5.41927C6.71821 5.17082 6.62491 4.98449 6.53161 4.98449ZM14.3689 20C13.8246 20 13.2337 19.969 12.4718 19.9068C11.3677 19.8137 10.3569 19.3013 9.37728 18.3541L4.96105 14.0373C3.93474 13.0435 3.88809 11.7391 4.80555 10.7454C5.1943 10.3416 5.80076 10.0932 6.45386 10.0932C7.10697 10.0932 7.69787 10.3416 8.07107 10.7764C8.08662 10.7919 8.11772 10.823 8.17992 10.8541C8.19547 10.8696 8.22657 10.8851 8.24212 10.9006V8.81989V7.79505C8.24212 7.00312 8.24212 6.19567 8.25767 5.40374C8.27322 4.22362 9.19068 3.323 10.4036 3.323H10.4191C11.5854 3.323 12.4718 4.17704 12.534 5.34163C12.5495 5.60561 12.5495 5.88511 12.534 6.16461V6.52176H12.7672C13.5758 6.52176 14.1978 6.80126 14.6488 7.39132C14.6643 7.42238 14.7576 7.45343 14.882 7.45343C14.9287 7.45343 14.9753 7.45343 15.0064 7.4379C15.1464 7.42238 15.2863 7.40685 15.4107 7.40685C16.0327 7.40685 16.577 7.6553 17.0435 8.16772C17.1212 8.24536 17.2923 8.30747 17.4478 8.30747H17.51C17.6188 8.29194 17.7432 8.27641 17.8521 8.27641C19.0184 8.27641 19.9514 9.0994 19.9669 10.1708C20.0136 12.1429 20.0447 14.0839 19.827 16.0093C19.5626 18.3385 18.3186 19.5808 15.8928 19.8913C15.4418 19.969 14.9287 20 14.3689 20ZM6.37611 10.9783C6.04956 10.9783 5.73856 11.1025 5.5053 11.3199C5.2254 11.5994 5.0699 11.9255 5.0699 12.2826C5.0699 12.6553 5.24095 13.028 5.55195 13.3385L6.14286 13.9286C7.43352 15.2019 8.77083 16.5062 10.1081 17.795C10.7612 18.4162 11.5076 18.8199 12.3318 18.9752C12.9694 19.0994 13.6069 19.1615 14.2289 19.1615C14.7887 19.1615 15.3485 19.1149 15.8928 19.0062C17.8676 18.6491 18.7696 17.7019 18.9562 15.8696C19.1272 14.1149 19.1117 12.3137 19.0806 10.5745V10.295C19.065 9.6584 18.6141 9.22362 17.9765 9.22362C17.8054 9.22362 17.6499 9.25467 17.4789 9.31679V11.7391C17.4789 11.9565 17.4789 12.3758 17.0435 12.3758H17.0279C16.888 12.3758 16.7791 12.3447 16.7169 12.2671C16.5925 12.1429 16.577 11.91 16.577 11.7236V11.6305C16.577 10.9162 16.5925 10.1864 16.577 9.45654C16.5614 8.81989 16.1105 8.36958 15.4885 8.36958C15.333 8.36958 15.1775 8.40064 15.0375 8.44722V10.9627C15.0375 11.1801 14.9909 11.3509 14.882 11.4596C14.8043 11.5373 14.6954 11.5839 14.5555 11.5839H14.5399C14.1201 11.5683 14.1201 11.1336 14.1201 10.9783V9.95343V8.64909C14.1201 8.35405 13.9957 8.04349 13.7624 7.81058C13.5447 7.59318 13.2493 7.46896 12.9538 7.46896C12.8294 7.46896 12.6895 7.48449 12.5651 7.53107V8.64909C12.5651 9.17704 12.5651 9.73604 12.534 10.2795C12.5184 10.4193 12.394 10.528 12.2696 10.6367C12.223 10.6832 12.1608 10.7298 12.1141 10.7764L12.0675 10.823L12.0364 10.7454C12.0053 10.6988 11.9586 10.6522 11.912 10.6211C11.8187 10.5124 11.7098 10.4037 11.6476 10.2795C11.6009 10.1864 11.6165 10.0777 11.6165 9.98449V9.86026V8.50933C11.6165 7.51554 11.6165 6.4907 11.6009 5.48138C11.6009 4.73604 11.1189 4.23915 10.4191 4.22362C9.65718 4.22362 9.14403 4.7671 9.14403 5.55902V12.8727L8.94188 12.9969L8.92633 12.9659C8.78638 12.8106 8.63088 12.6553 8.49093 12.5C8.16437 12.1584 7.82227 11.7857 7.48017 11.4441C7.16917 11.1491 6.78041 10.9783 6.37611 10.9783Z" fill="#ffffff"/>
</svg>
