<svg width="17" height="20" viewBox="0 0 17 20" fill="none" xmlns="http://www.w3.org/2000/svg">
<g clip-path="url(#clip0_623_1119)">
<path d="M16.0184 14.4123C15.1595 13.2823 13.9336 12.4729 12.5427 12.1173L12.4994 12.1082L11.4972 13.7665C11.4966 13.9873 11.4068 14.1989 11.2475 14.355C11.0883 14.5112 10.8725 14.5992 10.6472 14.5998C10.1797 14.5998 9.79723 14.2248 9.35098 13.1215V13.0948C9.35098 12.8186 9.23904 12.5536 9.03978 12.3583C8.84052 12.1629 8.57027 12.0532 8.28848 12.0532C8.00668 12.0532 7.73643 12.1629 7.53718 12.3583C7.33792 12.5536 7.22598 12.8186 7.22598 13.0948V13.1223V13.1207C6.74998 14.2248 6.36408 14.599 5.89743 14.599C5.6722 14.5983 5.45639 14.5103 5.29713 14.3542C5.13787 14.1981 5.0481 13.9865 5.04743 13.7657L4.07673 12.104C2.67613 12.4533 1.43897 13.2605 0.569627 14.3923L0.557727 14.4082C0.214032 14.9611 0.0222239 15.5918 0.000976562 16.239V16.2448C0.00522656 16.3698 0.000976562 16.5157 0.000976562 16.6615V18.3282C0.000976563 18.7702 0.180083 19.1941 0.498895 19.5067C0.817707 19.8192 1.25011 19.9948 1.70098 19.9948H14.876C15.3268 19.9948 15.7592 19.8192 16.0781 19.5067C16.3969 19.1941 16.576 18.7702 16.576 18.3282V16.6615C16.576 16.5165 16.5717 16.3698 16.576 16.2448C16.5554 15.59 16.3602 14.9519 16.0099 14.394L16.0192 14.4107L16.0184 14.4123ZM3.82513 4.40817C3.82513 6.8415 5.37213 10.4165 8.28763 10.4165C11.1521 10.4165 12.7501 6.8415 12.7501 4.40817V4.354C12.7501 3.77947 12.6347 3.21056 12.4104 2.67976C12.1862 2.14896 11.8575 1.66667 11.4431 1.26041C11.0287 0.854155 10.5368 0.531895 9.99535 0.312031C9.45394 0.0921666 8.87365 -0.0209961 8.28763 -0.0209961C7.7016 -0.0209961 7.12132 0.0921666 6.5799 0.312031C6.03849 0.531895 5.54654 0.854155 5.13216 1.26041C4.71778 1.66667 4.38908 2.14896 4.16481 2.67976C3.94055 3.21056 3.82513 3.77947 3.82513 4.354V4.41067V4.40817Z" fill="#152B51"/>
</g>
<defs>
<clipPath id="clip0_623_1119">
<rect width="17" height="20" fill="white"/>
</clipPath>
</defs>
</svg>
