<svg width="132" height="113" viewBox="0 0 132 113" fill="none" xmlns="http://www.w3.org/2000/svg">
    <path d="M22.2074 37V26.0909H25.233V37H22.2074ZM23.7273 24.6847C23.2775 24.6847 22.8916 24.5355 22.5696 24.2372C22.2524 23.9342 22.0938 23.572 22.0938 23.1506C22.0938 22.7339 22.2524 22.3764 22.5696 22.0781C22.8916 21.7751 23.2775 21.6236 23.7273 21.6236C24.1771 21.6236 24.5606 21.7751 24.8778 22.0781C25.1998 22.3764 25.3608 22.7339 25.3608 23.1506C25.3608 23.572 25.1998 23.9342 24.8778 24.2372C24.5606 24.5355 24.1771 24.6847 23.7273 24.6847ZM29.4251 37.1847C28.9563 37.1847 28.5539 37.0189 28.2177 36.6875C27.8862 36.3513 27.7205 35.9489 27.7205 35.4801C27.7205 35.0161 27.8862 34.6184 28.2177 34.2869C28.5539 33.9555 28.9563 33.7898 29.4251 33.7898C29.8796 33.7898 30.2773 33.9555 30.6183 34.2869C30.9592 34.6184 31.1296 35.0161 31.1296 35.4801C31.1296 35.7926 31.0491 36.0791 30.8881 36.3395C30.7319 36.5952 30.5259 36.8011 30.2702 36.9574C30.0146 37.1089 29.7328 37.1847 29.4251 37.1847Z" fill="black"/>
    <path d="M22.2074 65V54.0909H25.233V65H22.2074ZM23.7273 52.6847C23.2775 52.6847 22.8916 52.5355 22.5696 52.2372C22.2524 51.9342 22.0938 51.572 22.0938 51.1506C22.0938 50.7339 22.2524 50.3764 22.5696 50.0781C22.8916 49.7751 23.2775 49.6236 23.7273 49.6236C24.1771 49.6236 24.5606 49.7751 24.8778 50.0781C25.1998 50.3764 25.3608 50.7339 25.3608 51.1506C25.3608 51.572 25.1998 51.9342 24.8778 52.2372C24.5606 52.5355 24.1771 52.6847 23.7273 52.6847ZM27.6566 65V54.0909H30.6822V65H27.6566ZM29.1765 52.6847C28.7267 52.6847 28.3408 52.5355 28.0188 52.2372C27.7016 51.9342 27.543 51.572 27.543 51.1506C27.543 50.7339 27.7016 50.3764 28.0188 50.0781C28.3408 49.7751 28.7267 49.6236 29.1765 49.6236C29.6263 49.6236 30.0098 49.7751 30.3271 50.0781C30.649 50.3764 30.81 50.7339 30.81 51.1506C30.81 51.572 30.649 51.9342 30.3271 52.2372C30.0098 52.5355 29.6263 52.6847 29.1765 52.6847ZM34.8743 65.1847C34.4055 65.1847 34.0031 65.0189 33.6669 64.6875C33.3355 64.3513 33.1697 63.9489 33.1697 63.4801C33.1697 63.0161 33.3355 62.6184 33.6669 62.2869C34.0031 61.9555 34.4055 61.7898 34.8743 61.7898C35.3288 61.7898 35.7266 61.9555 36.0675 62.2869C36.4084 62.6184 36.5788 63.0161 36.5788 63.4801C36.5788 63.7926 36.4983 64.0791 36.3374 64.3395C36.1811 64.5952 35.9751 64.8011 35.7195 64.9574C35.4638 65.1089 35.1821 65.1847 34.8743 65.1847Z" fill="black"/>
    <path d="M22.2074 94V83.0909H25.233V94H22.2074ZM23.7273 81.6847C23.2775 81.6847 22.8916 81.5355 22.5696 81.2372C22.2524 80.9342 22.0938 80.572 22.0938 80.1506C22.0938 79.7339 22.2524 79.3764 22.5696 79.0781C22.8916 78.7751 23.2775 78.6236 23.7273 78.6236C24.1771 78.6236 24.5606 78.7751 24.8778 79.0781C25.1998 79.3764 25.3608 79.7339 25.3608 80.1506C25.3608 80.572 25.1998 80.9342 24.8778 81.2372C24.5606 81.5355 24.1771 81.6847 23.7273 81.6847ZM27.6566 94V83.0909H30.6822V94H27.6566ZM29.1765 81.6847C28.7267 81.6847 28.3408 81.5355 28.0188 81.2372C27.7016 80.9342 27.543 80.572 27.543 80.1506C27.543 79.7339 27.7016 79.3764 28.0188 79.0781C28.3408 78.7751 28.7267 78.6236 29.1765 78.6236C29.6263 78.6236 30.0098 78.7751 30.3271 79.0781C30.649 79.3764 30.81 79.7339 30.81 80.1506C30.81 80.572 30.649 80.9342 30.3271 81.2372C30.0098 81.5355 29.6263 81.6847 29.1765 81.6847ZM33.1058 94V83.0909H36.1314V94H33.1058ZM34.6257 81.6847C34.1759 81.6847 33.79 81.5355 33.468 81.2372C33.1508 80.9342 32.9922 80.572 32.9922 80.1506C32.9922 79.7339 33.1508 79.3764 33.468 79.0781C33.79 78.7751 34.1759 78.6236 34.6257 78.6236C35.0755 78.6236 35.459 78.7751 35.7763 79.0781C36.0982 79.3764 36.2592 79.7339 36.2592 80.1506C36.2592 80.572 36.0982 80.9342 35.7763 81.2372C35.459 81.5355 35.0755 81.6847 34.6257 81.6847ZM40.3235 94.1847C39.8548 94.1847 39.4523 94.0189 39.1161 93.6875C38.7847 93.3513 38.619 92.9489 38.619 92.4801C38.619 92.0161 38.7847 91.6184 39.1161 91.2869C39.4523 90.9555 39.8548 90.7898 40.3235 90.7898C40.7781 90.7898 41.1758 90.9555 41.5167 91.2869C41.8576 91.6184 42.0281 92.0161 42.0281 92.4801C42.0281 92.7926 41.9476 93.0791 41.7866 93.3395C41.6303 93.5952 41.4244 93.8011 41.1687 93.9574C40.913 94.1089 40.6313 94.1847 40.3235 94.1847Z" fill="black"/>
    <path d="M49.1066 33.2329H106.648" stroke="black" stroke-width="3" stroke-linecap="round"/>
    <path d="M49.0246 61.1205H106.566" stroke="black" stroke-width="3" stroke-linecap="round"/>
    <path d="M48.9836 90.3655H106.525" stroke="black" stroke-width="3" stroke-linecap="round"/>
</svg>
