<svg width="20" height="20" viewBox="0 0 20 20" fill="none" xmlns="http://www.w3.org/2000/svg">
<path d="M19.5825 8.18633L12.5825 3.18633C12.4085 3.06199 12.2048 3 12.0011 3C11.7975 3 11.5938 3.06199 11.4198 3.18633L7.05414 6.30465C7.34312 6.4843 7.58281 6.735 7.74949 7.03699L12.0011 4L19.0011 9H17.0011V18H7.08715L7.00781 19H17.0011C17.5535 19 18.0011 18.5523 18.0011 18V10H19.0011C19.4358 10 19.8208 9.71934 19.9531 9.30535C20.0861 8.89133 19.9361 8.43898 19.5825 8.18633Z" fill="white"/>
<path d="M7.98348 13.321L6.98348 7.82102C6.89715 7.34566 6.48313 7 5.99981 7H1.99981C1.51649 7 1.10246 7.34566 1.01614 7.82133L0.0161357 13.3213C-0.0368721 13.613 0.0421513 13.9133 0.232151 14.141C0.422151 14.3686 0.703479 14.5 0.999808 14.5H1.63879L2.00313 19.0793C2.04446 19.599 2.47813 20 2.99981 20H4.99981C5.52149 20 5.95547 19.599 5.9968 19.0793L6.36082 14.5H6.99981C7.29649 14.5 7.57746 14.3683 7.76746 14.1407C7.95746 13.913 8.03649 13.613 7.98348 13.321ZM5.43715 13.5L4.99981 19H2.99981L2.56246 13.5H0.999808L1.99981 8H3.49981V11.042C3.49981 11.3183 3.72348 11.542 3.99981 11.542C4.27614 11.542 4.49981 11.3183 4.49981 11.042V8H5.99981L6.99981 13.5H5.43715Z" fill="white"/>
<path d="M4 0C2.34602 0 1 1.34602 1 3C1 4.65398 2.34602 6 4 6C5.65434 6 7 4.65434 7 3C7 1.34566 5.65434 0 4 0ZM4 5C2.89535 5 2 4.10465 2 3C2 1.89535 2.89535 1 4 1C5.10465 1 6 1.89535 6 3C6 4.10465 5.10465 5 4 5Z" fill="white"/>
</svg>
