<svg width="20" height="20" viewBox="0 0 20 20" fill="none" xmlns="http://www.w3.org/2000/svg">
<path d="M1.78571 17.5C0.807453 17.5 0 16.7081 0 15.7143V1.78571C0 0.807453 0.791925 0 1.78571 0H14.8913C15.8696 0 16.677 0.791925 16.677 1.78571V8.36956L16.6149 8.35404C16.3509 8.2764 16.1025 8.24534 15.823 8.24534H15.8075L15.7919 8.19876H15.7453V1.78571C15.7453 1.3354 15.3416 0.931677 14.8913 0.931677H1.78571C1.3354 0.931677 0.931677 1.3354 0.931677 1.78571V15.7143C0.931677 16.1646 1.3354 16.5683 1.78571 16.5683H8.6646L8.68012 16.5838C8.85093 16.8168 8.75776 16.9876 8.69565 17.1118C8.63354 17.2205 8.60248 17.2981 8.71118 17.4068L8.80435 17.5H1.78571Z" fill="white"/>
<path d="M2.79493 3.4161C2.62413 3.4161 2.48438 3.19871 2.48438 2.93474C2.48438 2.67076 2.62413 2.45337 2.79493 2.45337H8.07444C8.24524 2.45337 8.385 2.67076 8.385 2.93474C8.385 3.19871 8.24524 3.4161 8.07444 3.4161H2.79493Z" fill="white"/>
<path d="M8.07444 2.5H2.79493C2.65518 2.5 2.53096 2.68634 2.53096 2.93478C2.53096 3.18323 2.65518 3.36957 2.79493 3.36957H8.07444C8.21419 3.36957 8.33841 3.18323 8.33841 2.93478C8.33841 2.68634 8.22972 2.5 8.07444 2.5ZM2.73282 5.90062C2.59307 5.90062 2.48438 5.69876 2.48438 5.41925C2.48438 5.13975 2.59307 4.93789 2.73282 4.93789H6.52164C6.66139 4.93789 6.77009 5.13975 6.77009 5.41925C6.77009 5.69876 6.66139 5.90062 6.52164 5.90062H2.73282Z" fill="white"/>
<path d="M6.52203 4.98449H2.73321C2.62451 4.98449 2.54688 5.17082 2.54688 5.41927C2.54688 5.66772 2.62451 5.85405 2.73321 5.85405H6.52203C6.63073 5.85405 6.70836 5.66772 6.70836 5.41927C6.70836 5.17082 6.6152 4.98449 6.52203 4.98449ZM14.3481 20C13.8046 20 13.2146 19.969 12.4537 19.9068C11.3512 19.8137 10.3419 19.3013 9.36364 18.3541L4.95371 14.0373C3.92886 13.0435 3.88228 11.7391 4.79843 10.7454C5.18663 10.3416 5.79222 10.0932 6.44439 10.0932C7.09656 10.0932 7.68663 10.3416 8.0593 10.7764C8.07482 10.7919 8.10588 10.823 8.16799 10.8541C8.18352 10.8696 8.21458 10.8851 8.2301 10.9006V8.81989V7.79505C8.2301 7.00312 8.2301 6.19567 8.24563 5.40374C8.26116 4.22362 9.17731 3.323 10.3885 3.323H10.404C11.5686 3.323 12.4537 4.17704 12.5158 5.34163C12.5313 5.60561 12.5313 5.88511 12.5158 6.16461V6.52176H12.7487C13.5562 6.52176 14.1773 6.80126 14.6276 7.39132C14.6431 7.42238 14.7363 7.45343 14.8605 7.45343C14.9071 7.45343 14.9537 7.45343 14.9848 7.4379C15.1245 7.42238 15.2643 7.40685 15.3885 7.40685C16.0096 7.40685 16.5531 7.6553 17.0189 8.16772C17.0966 8.24536 17.2674 8.30747 17.4226 8.30747H17.4848C17.5935 8.29194 17.7177 8.27641 17.8264 8.27641C18.991 8.27641 19.9226 9.0994 19.9382 10.1708C19.9848 12.1429 20.0158 14.0839 19.7984 16.0093C19.5344 18.3385 18.2922 19.5808 15.8699 19.8913C15.4195 19.969 14.9071 20 14.3481 20ZM6.36675 10.9783C6.04066 10.9783 5.7301 11.1025 5.49719 11.3199C5.21768 11.5994 5.0624 11.9255 5.0624 12.2826C5.0624 12.6553 5.23321 13.028 5.54377 13.3385L6.13383 13.9286C7.42265 15.2019 8.75805 16.5062 10.0935 17.795C10.7456 18.4162 11.491 18.8199 12.314 18.9752C12.9506 19.0994 13.5872 19.1615 14.2084 19.1615C14.7674 19.1615 15.3264 19.1149 15.8699 19.0062C17.8419 18.6491 18.7425 17.7019 18.9289 15.8696C19.0997 14.1149 19.0841 12.3137 19.0531 10.5745V10.295C19.0376 9.6584 18.5872 9.22362 17.9506 9.22362C17.7798 9.22362 17.6245 9.25467 17.4537 9.31679V11.7391C17.4537 11.9565 17.4537 12.3758 17.0189 12.3758H17.0034C16.8636 12.3758 16.7549 12.3447 16.6928 12.2671C16.5686 12.1429 16.5531 11.91 16.5531 11.7236V11.6305C16.5531 10.9162 16.5686 10.1864 16.5531 9.45654C16.5376 8.81989 16.0872 8.36958 15.4661 8.36958C15.3108 8.36958 15.1556 8.40064 15.0158 8.44722V10.9627C15.0158 11.1801 14.9692 11.3509 14.8605 11.4596C14.7829 11.5373 14.6742 11.5839 14.5345 11.5839H14.5189C14.0997 11.5683 14.0997 11.1336 14.0997 10.9783V9.95343V8.64909C14.0997 8.35405 13.9754 8.04349 13.7425 7.81058C13.5251 7.59318 13.2301 7.46896 12.9351 7.46896C12.8108 7.46896 12.6711 7.48449 12.5469 7.53107V8.64909C12.5469 9.17704 12.5469 9.73604 12.5158 10.2795C12.5003 10.4193 12.3761 10.528 12.2518 10.6367C12.2053 10.6832 12.1431 10.7298 12.0966 10.7764L12.05 10.823L12.0189 10.7454C11.9879 10.6988 11.9413 10.6522 11.8947 10.6211C11.8015 10.5124 11.6928 10.4037 11.6307 10.2795C11.5841 10.1864 11.5997 10.0777 11.5997 9.98449V9.86026V8.50933C11.5997 7.51554 11.5997 6.4907 11.5841 5.48138C11.5841 4.73604 11.1028 4.23915 10.404 4.22362C9.64315 4.22362 9.13072 4.7671 9.13072 5.55902V12.8727L8.92886 12.9969L8.91333 12.9659C8.77358 12.8106 8.6183 12.6553 8.47855 12.5C8.15246 12.1584 7.81085 11.7857 7.46923 11.4441C7.15868 11.1491 6.77048 10.9783 6.36675 10.9783Z" fill="white"/>
</svg>
